<svg width="24" height="24" viewBox="0 0 24 24" fill="none" xmlns="http://www.w3.org/2000/svg">
<g clip-path="url(#clip0)">
<path d="M18.5017 2.50306C15.4651 2.49893 13.0001 4.95723 12.9959 7.99383C12.9918 11.0304 15.4501 13.4955 18.4867 13.4996C20.2796 13.502 21.9612 12.6301 22.9923 11.1633C22.8997 16.3399 18.6807 20.4901 13.5032 20.4974C13.2272 20.4974 13.0034 20.7212 13.0034 20.9972C13.0034 21.2733 13.2272 21.4971 13.5032 21.4971C19.2977 21.4905 23.9933 16.7948 24 11.0004V8.00132C23.9967 4.96608 21.537 2.50638 18.5017 2.50306Z" fill="#FFD33F"/>
<path d="M5.50577 2.50306C2.46917 2.49893 0.00412889 4.95723 5.18047e-06 7.99387C-0.00411853 11.0305 2.45418 13.4955 5.49082 13.4996C7.28375 13.5021 8.96528 12.6301 9.9964 11.1634C9.9038 16.34 5.68478 20.4901 0.507362 20.4974C0.231308 20.4974 0.00750284 20.7212 0.00750284 20.9973C0.00750284 21.2733 0.231308 21.4972 0.507362 21.4972C6.30179 21.4905 10.9975 16.7949 11.0041 11.0004V8.00137C11.0008 4.96608 8.54101 2.50638 5.50577 2.50306Z" fill="#FFD33F"/>
</g>
<defs>
<clipPath id="clip0">
<rect width="24" height="24" fill="white"/>
</clipPath>
</defs>
</svg>
