<svg width="86" height="86" viewBox="0 0 86 86" fill="none" xmlns="http://www.w3.org/2000/svg">
<path d="M26.3733 80.1651C25.7394 82.6742 27.259 85.222 29.7668 85.856C32.2153 86.4752 34.7141 85.0414 35.4162 82.6151L43.0002 54.8051L50.5841 82.6151C51.3025 85.1005 53.9006 86.533 56.386 85.8146C58.8123 85.1125 60.2461 82.6136 59.627 80.1651L50.4064 45.9178H35.5941L26.3733 80.1651Z" fill="#EA3836"/>
<path d="M71.1432 8.88736H65.2183L63.8852 13.331H70.5078L71.1432 8.88736Z" fill="#FFD33F"/>
<path d="M20.7817 8.88736H14.8568L15.7455 13.331H22.1148L20.7817 8.88736Z" fill="#FFD33F"/>
<path d="M63.8851 13.331L60.7745 23.6995H53.3685L43 28.1431L32.6315 23.6995H25.2254L22.1148 13.331H15.7455L17.569 27.6619C17.72 28.8497 18.5732 29.8303 19.7285 30.1459L34.1126 34.0682L35.5938 45.918H50.406L51.8872 34.0682L66.3024 30.137C67.4429 29.826 68.2888 28.8691 68.4561 27.699L70.5076 13.3312H63.8851V13.331Z" fill="#91CECE"/>
<path d="M10.4132 0C12.0499 0 13.3756 1.32577 13.3756 2.96245V8.88736C13.3756 10.524 12.0499 11.8498 10.4132 11.8498C8.7765 11.8498 7.45073 10.524 7.45073 8.88736V2.96245C7.45073 1.32577 8.77633 0 10.4132 0Z" fill="#383856"/>
<path d="M25.2253 0C26.862 0 28.1877 1.32577 28.1877 2.96245V8.88736C28.1877 10.524 26.862 11.8498 25.2253 11.8498C23.5886 11.8498 22.2628 10.524 22.2628 8.88736V2.96245C22.2628 1.32577 23.5886 0 25.2253 0Z" fill="#383856"/>
<path d="M22.263 2.96243H13.3756V8.88734H22.263V2.96243Z" fill="#EA3836"/>
<path d="M60.7746 0C62.4112 0 63.737 1.32577 63.737 2.96245V8.88736C63.737 10.524 62.4112 11.8498 60.7746 11.8498C59.1379 11.8498 57.8121 10.524 57.8121 8.88736V2.96245C57.8121 1.32577 59.1379 0 60.7746 0Z" fill="#383856"/>
<path d="M75.5868 0C77.2235 0 78.5493 1.32577 78.5493 2.96245V8.88736C78.5493 10.524 77.2235 11.8498 75.5868 11.8498C73.9501 11.8498 72.6244 10.524 72.6244 8.88736V2.96245C72.6244 1.32577 73.9501 0 75.5868 0Z" fill="#383856"/>
<path d="M72.6244 2.96243H63.737V8.88734H72.6244V2.96243Z" fill="#EA3836"/>
<path d="M42.2594 8.88736H48.9249V13.331C44.2028 13.3325 39.6732 15.2003 36.3241 18.5286C35.8501 17.6073 35.5998 16.5882 35.5938 15.5528C35.5939 11.872 38.5786 8.88736 42.2594 8.88736Z" fill="#383856"/>
<path d="M48.9249 15.5529C48.9338 19.2248 45.9655 22.2079 42.295 22.2184C39.7651 22.2242 37.4515 20.7948 36.3243 18.5286C39.6734 15.2003 44.2028 13.3325 48.9251 13.331V15.5529H48.9249Z" fill="#FFD33F"/>
<path d="M47.4436 13.4036V14.0716C47.4436 17.7524 44.459 20.737 40.7781 20.737C39.3813 20.7355 38.0216 20.2852 36.8987 19.4543C39.0361 22.4315 43.1821 23.1114 46.1593 20.9741C47.9041 19.721 48.9351 17.7005 48.9247 15.5527V13.331C48.4287 13.331 47.9354 13.3636 47.4436 13.4036Z" fill="#FFAC3E"/>
<path d="M48.9249 8.88736C48.9901 10.5227 48.4642 12.1253 47.4438 13.4035C47.9356 13.3635 48.4287 13.331 48.9249 13.331V8.88736Z" fill="#202033"/>
<path d="M16.3381 8.88736H14.8568L15.7455 13.331H17.363L16.3381 8.88736Z" fill="#FFD33F"/>
<path d="M19.3004 28.1433L15.7455 13.331L17.569 27.6619C17.72 28.8497 18.5732 29.8303 19.7285 30.1459L34.1126 34.0682L29.669 31.1057L19.3004 28.1433Z" fill="#83B2B7"/>
<path d="M66.6995 28.1433L56.331 31.1057L51.8874 34.0682L66.3025 30.1371C67.4431 29.826 68.2889 28.8691 68.4562 27.699L70.5078 13.3312L66.6995 28.1433Z" fill="#83B2B7"/>
<path d="M10.4132 10.3685C8.7765 10.3685 7.45073 9.04275 7.45073 7.40607V8.88721C7.45073 10.5239 8.7765 11.8497 10.4132 11.8497C12.0499 11.8497 13.3756 10.5239 13.3756 8.88721V7.40607C13.3756 9.04292 12.0499 10.3685 10.4132 10.3685Z" fill="#202033"/>
<path d="M25.2253 10.3685C23.5886 10.3685 22.2628 9.04275 22.2628 7.40607V8.88721C22.2628 10.5239 23.5886 11.8497 25.2253 11.8497C26.862 11.8497 28.1877 10.5239 28.1877 8.88721V7.40607C28.1877 9.04292 26.8621 10.3685 25.2253 10.3685Z" fill="#202033"/>
<path d="M60.7746 10.3685C59.1379 10.3685 57.8121 9.04275 57.8121 7.40607V8.88721C57.8121 10.5239 59.1379 11.8497 60.7746 11.8497C62.4112 11.8497 63.737 10.5239 63.737 8.88721V7.40607C63.737 9.04292 62.4114 10.3685 60.7746 10.3685Z" fill="#202033"/>
<path d="M75.5868 10.3685C73.9501 10.3685 72.6244 9.04275 72.6244 7.40607V8.88721C72.6244 10.5239 73.9501 11.8497 75.5868 11.8497C77.2235 11.8497 78.5493 10.5239 78.5493 8.88721V7.40607C78.5493 9.04292 77.2235 10.3685 75.5868 10.3685Z" fill="#202033"/>
<path d="M22.263 7.40607H13.3756V8.88721H22.263V7.40607Z" fill="#D62121"/>
<path d="M72.6243 7.40607H63.737V8.88721H72.6243V7.40607Z" fill="#D62121"/>
<path d="M26.3733 80.1652C25.7394 82.6743 27.259 85.222 29.7668 85.8561C32.2153 86.4752 34.7141 85.0414 35.4162 82.6151L38.4039 71.6541C34.4756 73.5916 30.6023 75.2639 27.3376 76.579L26.3733 80.1652Z" fill="#D62121"/>
<path d="M54.5713 61.3877C52.0399 63.6081 49.3055 65.5884 46.4069 67.3007L50.5839 82.615C51.3023 85.1004 53.9005 86.5329 56.3859 85.8145C58.8122 85.1124 60.246 82.6135 59.6268 80.165L54.5713 61.3877Z" fill="#D62121"/>
</svg>
